<?xml version="1.0" encoding="iso-8859-1"?>
<!-- Generator: Adobe Illustrator 19.0.0, SVG Export Plug-In . SVG Version: 6.00 Build 0)  -->
<svg xmlns="http://www.w3.org/2000/svg" xmlns:xlink="http://www.w3.org/1999/xlink" version="1.1" id="Layer_1" x="0px" y="0px" viewBox="0 0 508.646 508.646" style="enable-background:new 0 0 508.646 508.646;" xml:space="preserve" width="512" height="512">
<g>
	<g>
		<g>
			<rect x="158.779" y="318.481" style="fill:rgb(0,0,0);" width="15.924" height="15"/>
		</g>
		<g>
			<rect x="246.361" y="326.443" style="fill:rgb(0,0,0);" width="135.354" height="15"/>
		</g>
		<g>
			<rect x="429.487" y="326.443" style="fill:rgb(0,0,0);" width="15.924" height="15"/>
		</g>
		<g>
			<rect x="254.323" y="390.139" style="fill:rgb(0,0,0);" width="214.975" height="15"/>
		</g>
		<g>
			<polygon style="fill:rgb(0,0,0);" points="46.848,198.589 31.848,198.589 31.848,119.43 79.158,119.43 79.158,134.43 46.848,134.43         "/>
		</g>
		<g>
			<rect x="31.848" y="246.361" style="fill:rgb(0,0,0);" width="15" height="15.924"/>
		</g>
		<g>
			<rect x="294.133" y="87.582" style="fill:rgb(0,0,0);" width="15.924" height="15"/>
		</g>
		<g>
			<path style="fill:rgb(0,0,0);" d="M103.044,365.329h103.044v-31.386c0-33.572-21.018-62.31-50.579-73.798     c11.372-8.649,18.731-22.314,18.731-37.671c0-26.087-21.223-47.31-47.31-47.31s-47.31,21.223-47.31,47.31     c0,15.357,7.359,29.022,18.731,37.671c-29.561,11.488-50.579,40.226-50.579,73.798v31.386h31.386v-15H62.772v-16.386     c0-0.155,0.011-0.308,0.012-0.462h48.222v-15H64.668c6.939-27.93,32.216-48.696,62.263-48.696     c35.377,0,64.158,28.781,64.158,64.158v16.386h-88.044V365.329z M94.621,222.474c0-17.816,14.494-32.31,32.31-32.31     s32.31,14.494,32.31,32.31s-14.494,32.311-32.31,32.311S94.621,240.29,94.621,222.474z"/>
			<rect x="126.931" y="318.481" style="fill:rgb(0,0,0);" width="15.924" height="15"/>
			<path style="fill:rgb(0,0,0);" d="M294.595,214.512c0,48.039,39.082,87.121,87.12,87.121s87.12-39.082,87.12-87.121     c0-48.038-39.082-87.12-87.12-87.12S294.595,166.474,294.595,214.512z M381.715,142.392c39.767,0,72.12,32.353,72.12,72.12     c0,39.768-32.353,72.121-72.12,72.121s-72.12-32.353-72.12-72.121C309.595,174.745,341.948,142.392,381.715,142.392z"/>
			<path style="fill:rgb(0,0,0);" d="M381.715,269.785c30.477,0,55.272-24.795,55.272-55.272c0-30.477-24.795-55.272-55.272-55.272     s-55.272,24.795-55.272,55.272C326.443,244.99,351.238,269.785,381.715,269.785z M342.154,222.012h32.061v32.061     C358.014,251.008,345.22,238.214,342.154,222.012z M389.215,254.074v-32.061h32.061     C418.211,238.214,405.417,251.008,389.215,254.074z M421.276,207.012h-32.061v-32.061     C405.417,178.017,418.211,190.811,421.276,207.012z M374.215,174.952v32.061h-32.061     C345.22,190.811,358.014,178.017,374.215,174.952z"/>
			<rect x="397.639" y="326.443" style="fill:rgb(0,0,0);" width="15.924" height="15"/>
			<rect x="262.285" y="358.291" style="fill:rgb(0,0,0);" width="207.012" height="15"/>
			<rect x="31.848" y="214.512" style="fill:rgb(0,0,0);" width="15" height="15.924"/>
			<polygon style="fill:rgb(0,0,0);" points="492.722,87.582 492.722,55.734 142.854,55.734 142.854,70.734 477.722,70.734      477.722,87.582 357.829,87.582 357.829,102.582 493.646,102.582 493.646,437.911 397.639,437.911 397.639,452.911      508.646,452.911 508.646,87.582    "/>
			<polygon style="fill:rgb(0,0,0);" points="15,102.582 278.209,102.582 278.209,87.582 30.924,87.582 30.924,70.734 118.969,70.734      118.969,55.734 15.924,55.734 15.924,87.582 0,87.582 0,452.911 373.753,452.911 373.753,437.911 15,437.911    "/>
			<rect x="325.981" y="87.582" style="fill:rgb(0,0,0);" width="15.924" height="15"/>
		</g>
	</g>
</g>















</svg>